<svg width="64" height="64" viewBox="0 0 64 64" fill="none" xmlns="http://www.w3.org/2000/svg">
  <g fill="#3ad94f">
    <rect x="6"  y="14" width="2.4" height="36" rx="1.2"/>
    <rect x="11" y="9"  width="2.4" height="46" rx="1.2"/>
    <path d="M16.8 11 q1.4 0 1.4 1.4 v8 q1.6 1 1.6 3 t-1.6 3 v22 q0 1.4-1.4 1.4 t-1.4-1.4 V32 q-1.6-1-1.6-3 t1.6-3 v-13.6 q0-1.4 1.4-1.4z"/>
    <rect x="23" y="12" width="2.4" height="40" rx="1.2"/>
    <rect x="28" y="7"  width="2.4" height="50" rx="1.2"/>
    <path d="M34.2 10 q1.4 0 1.4 1.4 v12 q1.7 1 1.7 3.2 t-1.7 3.2 v19 q0 1.4-1.4 1.4 t-1.4-1.4 V31 q-1.7-1-1.7-3.2 t1.7-3.2 V11.4 q0-1.4 1.4-1.4z"/>
    <rect x="41" y="11" width="2.4" height="42" rx="1.2"/>
    <rect x="46" y="15" width="2.4" height="34" rx="1.2"/>
    <path d="M52.2 12 q1.4 0 1.4 1.4 v9 q1.5 1 1.5 2.8 t-1.5 2.8 v21 q0 1.4-1.4 1.4 t-1.4-1.4 V30.8 q-1.5-1-1.5-2.8 t1.5-2.8 v-11.8 q0-1.4 1.4-1.4z"/>
    <rect x="58" y="16" width="2.4" height="32" rx="1.2"/>
  </g>
</svg>
